<?xml version="1.0" ?><svg height="24px" version="1.1" viewBox="0 0 24 24" width="24px"
    xmlns="http://www.w3.org/2000/svg" xmlns:xlink="http://www.w3.org/1999/xlink">
    <title />
    <g fill="none" fillRule="evenodd" id="alarm-star" stroke="none" stroke-width="1">
        <path
            d="M12,3.65 C7.02943725,3.65 3,7.67943725 3,12.65 C3,17.5318027 6.88681368,21.5057914 11.7346377,21.6461629 L12,21.65 L12.2653623,21.6461629 C17.1131863,21.5057914 21,17.5318027 21,12.65 C21,7.67943725 16.9705627,3.65 12,3.65 Z M5.2,2.35 L1.7,5.85 L3.11421356,7.26421356 L6.61421356,3.76421356 L5.2,2.35 Z M18.8042136,2.35 L17.39,3.76421356 L20.89,7.26421356 L22.3042136,5.85 L18.8042136,2.35 Z M12.158945,8.53183855 C12.2602919,8.57393249 12.3408296,8.65447022 12.3829235,8.75581712 L13.3323437,11.0416759 L15.7980194,11.2396232 C16.0263864,11.2579568 16.1966522,11.4579472 16.1783186,11.6863142 C16.1695572,11.7954476 16.1180073,11.8966921 16.0349075,11.9679752 L14.1558836,13.5798007 L14.7297645,15.9889912 C14.7828523,16.2118574 14.6452198,16.4355622 14.4223537,16.48865 C14.3156948,16.5140567 14.2033152,16.4962038 14.1097809,16.4389939 L11.9998282,15.148448 L9.88987545,16.4389939 C9.69443366,16.5585352 9.43908938,16.4970057 9.31954803,16.3015639 C9.26233813,16.2080297 9.2444852,16.0956501 9.26989187,15.9889912 L9.8437728,13.5798007 L7.96474894,11.9679752 C7.79085832,11.8188119 7.77081284,11.556925 7.9199761,11.3830344 C7.99125913,11.2999345 8.09250365,11.2483846 8.20163704,11.2396232 L10.6673127,11.0416759 L11.6167329,8.75581712 C11.7046106,8.54423941 11.9473673,8.44396079 12.158945,8.53183855 Z"
            fill="#F7B3FF" fillRule="nonzero" id="Combined-Shape" />
    </g>
</svg>